<svg xmlns="http://www.w3.org/2000/svg" width="746.921" height="67.743" viewBox="0 0 700.23822 63.508984"><g fill="#dadada"><g color="#000" font-weight="400" font-family="sans-serif" white-space="normal" fill-rule="evenodd"><path d="M0 31.754c0 .663 17.3 1.02 274.22 1.02 0 0 1.03-.055 1.05-1.038.017-.983-1.05-1-1.05-1C17.178 30.735 0 31.008 0 31.753zM700.238 31.754c0 .663-17.3 1.02-274.22 1.02 0 0-1.03-.055-1.05-1.038-.017-.983 1.05-1 1.05-1 257.043 0 274.22.273 274.22 1.018z" style="line-height:normal;text-indent:0;text-align:start;text-decoration-line:none;text-decoration-style:solid;text-decoration-color:#000;text-transform:none;block-progression:tb;isolation:auto;mix-blend-mode:normal" overflow="visible"/></g><path d="M329.026 63.348c-4.786-.87-8.824-4.56-10.12-9.247l-.278-1-.087-19.013c-.052-11.413-.04-19.614.03-20.515.34-4.393 1.442-7.538 3.38-9.64.827-.898 2.435-2.056 2.854-2.056.398 0 .75.28.756.604.002.115 0 3.387-.004 7.27-.007 6.336-.03 7.087-.21 7.288-.27.296-.73.285-1.04-.026-.245-.243-.25-.417-.25-6.504 0-3.68-.048-6.255-.115-6.255-.193 0-1.55 1.562-1.986 2.285-.596.99-1.252 2.93-1.53 4.523-.294 1.674-.574 6.878-.444 8.235l.093.97h8.988c5.39 0 9.114-.048 9.302-.12.172-.065.81-.507 1.415-.982 1.977-1.55 3.936-2.488 6.425-3.08 3.252-.773 6.327-.607 9.553.516.686.238 1.532.576 1.88.75.825.416 2.443 1.497 3.367 2.252l.735.6 9.182.034c8.62.03 9.186.02 9.264-.184.13-.34-.197-7.34-.404-8.66-.268-1.703-.63-2.915-1.262-4.232-1.2-2.5-3.9-4.55-6.943-5.28-1.025-.246-1.45-.252-18.03-.253h-16.982v7.567c0 7.4-.006 7.573-.25 7.818-.137.138-.39.25-.563.25-.172 0-.425-.112-.563-.25-.245-.245-.25-.417-.25-8.324V.614l.307-.307.307-.307 17.363.002c16.462.002 17.42.014 18.488.235 3.19.662 6.216 2.582 7.797 4.946 1.105 1.652 1.78 3.668 2.222 6.638.205 1.383.226 3.06.267 21.123l.043 19.62-.266 1.083c-.297 1.203-1.097 3.002-1.826 4.108-.692 1.048-2.414 2.792-3.495 3.54a14.713 14.713 0 0 1-3.992 1.898l-1 .29-20.577.022c-17.246.018-20.734-.007-21.547-.155zm43.438-1.895c3.465-1.177 5.89-3.6 7.242-7.227l.326-.875.034-15.792.033-15.792h-9.283c-10.697 0-9.474.15-11.455-1.415-1.88-1.483-3.8-2.363-6.35-2.908-1.526-.327-4.382-.3-6.058.057-2.43.517-4.532 1.515-6.398 3.04-1.568 1.28-.428 1.155-11.06 1.226l-9.382.062V52.6l.29 1.052c1.155 4.204 4.233 7.14 8.467 8.082.612.136 4.615.163 21.58.145l20.826-.023 1.188-.404zm-25.08-12.932c-1.942-.28-4.6-1.327-6.346-2.502-3.977-2.674-6.634-6.71-7.43-11.29-.15-.86-.184-1.65-.137-3.205.054-1.772.117-2.274.446-3.542.36-1.388 1.1-3.044 1.614-3.62.425-.472 1.284-.12 1.284.527 0 .158-.22.69-.49 1.18-1.575 2.874-1.833 7.283-.634 10.862 1.69 5.038 6.122 8.913 11.372 9.938 1.606.313 4.45.278 6.135-.076 3.325-.698 6.173-2.348 8.233-4.766 3.764-4.42 4.688-10.545 2.44-16.163-.506-1.263-.48-1.687.112-1.896.55-.193.9.15 1.356 1.328.895 2.316 1.336 4.962 1.206 7.228-.474 8.227-6.14 14.694-13.97 15.946-1.277.203-3.95.23-5.19.05zm1.188-3.62c-5.572-.68-10.018-4.765-11.16-10.25-.362-1.74-.267-4.723.2-6.29.613-2.05 1.585-3.7 3.137-5.322 1.744-1.824 3.763-2.958 6.198-3.483 1.593-.343 5.2-.314 6.525.053 3.08.853 5.784 2.753 7.4 5.198 2.975 4.5 2.863 10.712-.268 14.928-2.673 3.598-7.59 5.71-12.033 5.166zm3.535-1.68c3.885-.677 7.108-3.13 8.48-6.456 1.172-2.844 1.143-6.613-.073-9.504-1.864-4.433-6.352-6.92-11.546-6.397-2.366.24-3.713.678-5.287 1.724-2.41 1.603-4.135 4.092-4.756 6.872-.274 1.22-.204 4.4.122 5.628.362 1.36 1.357 3.325 2.2 4.344 2.51 3.03 6.744 4.506 10.86 3.788zm-4.16-1.5c-.447-.1-1.32-.434-1.94-.74-3.79-1.88-6.112-6.002-5.676-10.075.54-5.03 4.564-8.54 9.806-8.554 1.577-.003 2.64.223 4.024.856 2.83 1.295 4.937 3.847 5.594 6.778.254 1.137.26 3.122.01 4.314-.69 3.288-3.493 6.11-7.126 7.17-1.42.415-3.476.525-4.69.252zm3.438-1.51c.953-.122 2.476-.728 3.44-1.37 4.353-2.892 4.882-9.296 1.057-12.8-.904-.83-1.838-1.366-3.12-1.793-1.164-.39-3.797-.414-5.065-.05-2.423.7-4.062 2.076-5.07 4.26-.564 1.22-.81 2.33-.808 3.636.003 2.248.69 3.954 2.258 5.606 1.44 1.514 3.01 2.36 4.77 2.567.903.106 1.323.096 2.537-.058zm-21.95-23.198c-.246-.245-.252-.417-.252-8.068 0-7.65.006-7.823.25-8.068.138-.138.39-.25.563-.25.172 0 .426.112.563.25.244.245.25.417.25 8.068 0 7.65-.006 7.823-.25 8.068-.138.138-.392.25-.564.25-.172 0-.425-.112-.562-.25zm36.057-.57c-.316-.19-.67-.554-.875-.906l-.346-.588v-7.63l.348-.59c.215-.366.554-.713.887-.908l.54-.316h7.87l.5.324c.274.178.637.525.806.772l.31.45v8.167l-.31.45c-.168.246-.53.593-.806.77l-.5.325h-3.945l-3.948-.002-.53-.317zm8.348-1.43c.24-.24.25-.418.25-3.88 0-3.46-.01-3.638-.25-3.877-.238-.238-.417-.25-3.878-.25-3.46 0-3.64.012-3.877.25-.24.24-.25.417-.25 3.933 0 3.665 0 3.684.277 3.878.236.165.823.195 3.878.195 3.433 0 3.612-.01 3.85-.25z"/></g></svg>